HIERARCHY
ROOT Hips
{
	OFFSET 0.00000 0.00000 0.00000
	CHANNELS 6 Xposition Yposition Zposition Zrotation Yrotation Xrotation 
	JOINT LHipJoint
	{
		OFFSET 0 0 0
		CHANNELS 3 Zrotation Yrotation Xrotation
		JOINT LeftUpLeg
		{
			OFFSET 1.49846 -1.74315 1.08250
			CHANNELS 3 Zrotation Yrotation Xrotation
			JOINT LeftLeg
			{
				OFFSET 2.40966 -6.62050 0.00000
				CHANNELS 3 Zrotation Yrotation Xrotation
				JOINT LeftFoot
				{
					OFFSET 2.68066 -7.36505 0.00000
					CHANNELS 3 Zrotation Yrotation Xrotation
					JOINT LeftToeBase
					{
						OFFSET 0.14291 -0.39265 2.35870
						CHANNELS 3 Zrotation Yrotation Xrotation
						End Site
						{
							OFFSET 0.00000 -0.00000 1.20470
						}
					}
				}
			}
		}
	}
	JOINT RHipJoint
	{
		OFFSET 0 0 0
		CHANNELS 3 Zrotation Yrotation Xrotation
		JOINT RightUpLeg
		{
			OFFSET -1.46318 -1.74316 1.08250
			CHANNELS 3 Zrotation Yrotation Xrotation
			JOINT RightLeg
			{
				OFFSET -2.39759 -6.58734 0.00000
				CHANNELS 3 Zrotation Yrotation Xrotation
				JOINT RightFoot
				{
					OFFSET -2.63570 -7.24154 0.00000
					CHANNELS 3 Zrotation Yrotation Xrotation
					JOINT RightToeBase
					{
						OFFSET -0.17578 -0.48294 2.47180
						CHANNELS 3 Zrotation Yrotation Xrotation
						End Site
						{
							OFFSET -0.00000 -0.00000 1.26600
						}
					}
				}
			}
		}
	}
	JOINT LowerBack
	{
		OFFSET 0 0 0
		CHANNELS 3 Zrotation Yrotation Xrotation
		JOINT Spine
		{
			OFFSET 0.00843 2.19877 -0.20423
			CHANNELS 3 Zrotation Yrotation Xrotation
			JOINT Spine1
			{
				OFFSET -0.03080 2.21436 -0.05138
				CHANNELS 3 Zrotation Yrotation Xrotation
				JOINT Neck
				{
					OFFSET 0 0 0
					CHANNELS 3 Zrotation Yrotation Xrotation
					JOINT Neck1
					{
						OFFSET -0.04063 1.58841 0.30440
						CHANNELS 3 Zrotation Yrotation Xrotation
						JOINT Head
						{
							OFFSET 0.09277 1.59484 -0.39337
							CHANNELS 3 Zrotation Yrotation Xrotation
							End Site
							{
								OFFSET 0.03488 1.66530 -0.17040
							}
						}
					}
				}
				JOINT LeftShoulder
				{
					OFFSET 0 0 0
					CHANNELS 3 Zrotation Yrotation Xrotation
					JOINT LeftArm
					{
						OFFSET 3.03849 1.31522 0.02556
						CHANNELS 3 Zrotation Yrotation Xrotation
						JOINT LeftForeArm
						{
							OFFSET 5.25537 -0.00000 0.00000
							CHANNELS 3 Zrotation Yrotation Xrotation
							JOINT LeftHand
							{
								OFFSET 3.38855 -0.00000 -0.00000
								CHANNELS 3 Zrotation Yrotation Xrotation
								JOINT LeftFingerBase
								{
									OFFSET 0 0 0
									CHANNELS 3 Zrotation Yrotation Xrotation
									JOINT LeftHandIndex1
									{
										OFFSET 0.61452 -0.00000 0.00000
										CHANNELS 3 Zrotation Yrotation Xrotation
										End Site
										{
											OFFSET 0.49544 -0.00000 0.00000
										}
									}
								}
								JOINT LThumb
								{
									OFFSET 0 0 0
									CHANNELS 3 Zrotation Yrotation Xrotation
									End Site
									{
										OFFSET 0.50300 -0.00000 0.50300
									}
								}
							}
						}
					}
				}
				JOINT RightShoulder
				{
					OFFSET 0 0 0
					CHANNELS 3 Zrotation Yrotation Xrotation
					JOINT RightArm
					{
						OFFSET -3.06926 1.12091 -0.13185
						CHANNELS 3 Zrotation Yrotation Xrotation
						JOINT RightForeArm
						{
							OFFSET -5.38183 -0.00000 0.00000
							CHANNELS 3 Zrotation Yrotation Xrotation
							JOINT RightHand
							{
								OFFSET -3.16988 -0.00000 0.00000
								CHANNELS 3 Zrotation Yrotation Xrotation
								JOINT RightFingerBase
								{
									OFFSET 0 0 0
									CHANNELS 3 Zrotation Yrotation Xrotation
									JOINT RightHandIndex1
									{
										OFFSET -0.63768 -0.00000 0.00000
										CHANNELS 3 Zrotation Yrotation Xrotation
										End Site
										{
											OFFSET -0.51411 -0.00000 0.00000
										}
									}
								}
								JOINT RThumb
								{
									OFFSET 0 0 0
									CHANNELS 3 Zrotation Yrotation Xrotation
									End Site
									{
										OFFSET -0.52196 -0.00000 0.52196
									}
								}
							}
						}
					}
				}
			}
		}
	}
}
MOTION
Frames: 6
Frame Time: 0.00884956
0.00 0.00 0.00 31.3642 -8.8378 109.5260 0.0000 0.0000 0.0000 -16.9333 -41.0574 -26.4091 0.7074 5.3756 14.9829 -0.7315 17.2637 2.8914 0.0289 -1.0978 -3.0180 0.0000 0.0000 0.0000 -11.5169 11.8571 -21.6515 -3.2381 -11.0708 32.5190 -8.6241 7.5526 -55.2691 -5.2645 -13.6756 41.9534 -6.8300 -8.9237 6.2519 -1.6214 -13.3724 -7.5969 3.8824 -6.1231 -10.5415 -19.8977 -8.4192 -5.4323 22.9739 -8.9920 -15.2685 10.4835 -4.4709 -1.2801 -0.0000 0.0000 0.0000 53.9328 -53.0823 -163.5600 7.7907 -13.2131 -0.9037 -0.0000 -0.0000 148.8760 20.4511 8.7171 3.2348 -7.1250 0.0000 -0.0000 -5.6041 39.2150 0.8018 -0.0000 0.0000 0.0000 -32.9286 15.3157 -26.0849 -18.1886 28.3980 -4.6386 0.0000 0.0000 177.9770 -28.2675 6.5771 -3.5244 7.1250 -0.0000 -0.0000 -1.1089 -22.5221 -0.5997
0.00 0.00 0.00 31.5420 -8.7861 108.8400 0.0000 0.0000 0.0000 -18.8080 -39.6757 -26.1358 0.7331 5.4703 15.2549 -0.5382 15.8599 4.0920 0.0693 -1.6989 -4.6741 0.0000 0.0000 0.0000 -10.7612 11.6013 -22.3516 -3.4239 -11.3516 33.4749 -8.2775 6.2813 -54.1906 -4.9756 -13.3563 40.7172 -6.8289 -9.2146 6.1402 -1.4780 -13.7379 -7.5308 4.0351 -6.3122 -10.3289 -19.7403 -8.4128 -6.2665 22.1916 -8.9678 -14.6343 10.1239 -4.3860 -1.0460 -0.0000 -0.0000 0.0000 39.6633 -51.7427 -126.1713 8.1389 -13.7777 -0.9849 -0.0000 -0.0000 125.0480 17.7855 6.9733 2.2303 -7.1250 0.0000 -0.0000 -7.6362 37.2025 1.4756 -0.0000 -0.0000 0.0000 -30.0420 15.8980 -21.9308 -18.6640 28.9991 -4.8669 0.0000 0.0000 176.4390 -29.2243 6.0788 -3.3904 7.1250 -0.0000 -0.0000 -1.8394 -23.0234 -0.9740
0.00 0.00 0.00 31.7156 -8.7954 108.3860 0.0000 0.0000 0.0000 -19.9587 -39.3570 -26.0566 0.7582 5.5610 15.5158 -0.4777 15.3816 4.4603 0.0271 -1.0627 -2.9212 0.0000 0.0000 0.0000 -10.2623 11.3751 -22.9242 -3.5592 -11.5495 34.1564 -7.9100 5.4793 -52.9761 -4.7202 -13.0616 39.5997 -6.8478 -9.3894 5.9666 -1.3564 -13.9583 -7.5861 4.1613 -6.4235 -10.2319 -20.3949 -8.2757 -6.3260 22.9495 -8.6352 -15.0571 10.5496 -4.2079 -1.1304 -0.0000 0.0000 0.0000 27.4369 -47.1099 -85.7762 9.3780 -15.7608 -1.3009 -0.0000 -0.0000 94.8245 14.6225 6.1446 1.5996 -7.1250 0.0000 -0.0000 -10.1541 36.1673 2.2335 -0.0000 0.0000 0.0000 -27.9430 15.9780 -18.1282 -19.2741 29.7579 -5.1662 0.0000 0.0000 174.6560 -29.5185 5.4842 -3.0974 7.1250 -0.0000 -0.0000 -2.0915 -23.6845 -1.0759
0.00 0.00 0.00 32.0530 -8.5116 107.6230 0.0000 0.0000 0.0000 -21.4015 -38.8835 -26.1711 0.7977 5.7008 15.9187 -0.2512 13.8875 6.3614 0.0020 0.2915 0.8008 0.0000 0.0000 0.0000 -9.0577 11.1346 -23.9041 -3.7685 -11.8458 35.1887 -7.9396 4.8064 -53.1809 -4.8357 -13.1963 40.1079 -6.7357 -9.4664 5.6806 -1.0625 -14.0124 -7.7556 4.3732 -6.4542 -10.1960 -20.8964 -8.1599 -6.2075 22.8853 -8.4497 -15.3208 10.6515 -4.0887 -1.2499 0.0000 -0.0000 0.0000 18.0462 -34.2911 -35.0657 12.8861 -21.1201 -2.4121 -0.0000 -0.0000 50.7191 9.9573 6.8139 1.1932 -7.1250 0.0000 -0.0000 -14.1259 36.5683 3.0032 0.0000 -0.0000 0.0000 -24.3441 15.3208 -11.4327 -20.8434 31.6451 -5.9676 0.0000 0.0000 172.0020 -30.7511 4.3029 -2.5560 7.1250 -0.0000 -0.0000 -3.0804 -24.9759 -1.4937
0.00 0.00 0.00 21.6501 -8.3537 69.8211 0.0000 0.0000 0.0000 -32.2114 -14.3074 -10.7750 9.6835 17.2280 58.4253 -0.1177 9.9886 4.8140 0.1810 -2.7403 -7.5567 0.0000 0.0000 0.0000 -6.1853 -30.6351 -22.2028 -18.7179 -19.9605 86.2490 0.0642 6.3332 -2.4489 -0.0031 -0.3615 0.9932 -5.7272 -4.4777 13.0087 -4.7521 -8.1237 -7.9979 -0.0395 -3.4910 -16.4174 -13.0941 -7.9415 -25.0440 11.2292 -8.2931 10.0934 4.7144 -3.3955 8.1933 -0.0000 -0.0000 0.0000 -57.8083 -47.4582 44.1059 134.1881 -51.1601 -97.1306 -0.0000 0.0000 -19.9801 44.4562 10.6353 10.2643 -7.1250 0.0000 -0.0000 16.0829 44.1081 -0.3639 -0.0000 -0.0000 0.0000 56.1286 43.8972 26.2408 -125.1334 54.7792 -89.8930 0.0000 0.0000 129.9860 -7.7892 -6.2034 0.8469 7.1250 -0.0000 -0.0000 15.7726 -35.8459 3.6629
0.00 0.00 0.00 20.7815 -8.8973 68.3526 0.0000 0.0000 0.0000 -32.1491 -12.4029 -10.4306 12.2316 18.4868 66.7210 -0.1509 10.1629 4.2785 0.3009 -3.5269 -9.7494 0.0000 0.0000 0.0000 -10.4094 -32.5820 -19.3873 -21.5479 -19.9425 94.5301 0.1582 8.2517 -1.5857 -0.0121 0.7091 -1.9487 -5.9483 -4.3113 12.9805 -4.5533 -7.8960 -7.9629 0.2427 -3.3496 -16.2933 -12.9610 -7.9149 -27.1575 10.2662 -8.1796 15.0499 4.3959 -3.3614 10.1926 0.0000 0.0000 0.0000 -52.8000 -55.0278 34.6224 123.7086 -55.2379 -88.7257 -0.0000 0.0000 -25.2287 41.6286 11.4841 10.0343 -7.1250 0.0000 -0.0000 13.5029 44.7511 -0.0845 0.0000 0.0000 0.0000 55.1510 51.9486 22.6154 -108.9961 58.5916 -76.3733 0.0000 0.0000 121.7550 -9.1124 -4.2095 0.6746 7.1250 -0.0000 -0.0000 14.3184 -33.9669 3.9809
